<?xml version="1.0" encoding="utf-8" standalone="no"?>
<!DOCTYPE svg PUBLIC "-//W3C//DTD SVG 1.1//EN"
  "http://www.w3.org/Graphics/SVG/1.1/DTD/svg11.dtd">
<!-- Created with matplotlib (https://matplotlib.org/) -->
<svg height="450.72pt" version="1.1" viewBox="0 0 921.6 450.72" width="921.6pt" xmlns="http://www.w3.org/2000/svg" xmlns:xlink="http://www.w3.org/1999/xlink">
 <metadata>
  <rdf:RDF xmlns:cc="http://creativecommons.org/ns#" xmlns:dc="http://purl.org/dc/elements/1.1/" xmlns:rdf="http://www.w3.org/1999/02/22-rdf-syntax-ns#">
   <cc:Work>
    <dc:type rdf:resource="http://purl.org/dc/dcmitype/StillImage"/>
    <dc:date>2021-01-17T10:33:47.435681</dc:date>
    <dc:format>image/svg+xml</dc:format>
    <dc:creator>
     <cc:Agent>
      <dc:title>Matplotlib v3.3.3, https://matplotlib.org/</dc:title>
     </cc:Agent>
    </dc:creator>
   </cc:Work>
  </rdf:RDF>
 </metadata>
 <defs>
  <style type="text/css">*{stroke-linecap:butt;stroke-linejoin:round;}</style>
 </defs>
 <g id="figure_1">
  <g id="patch_1">
   <path d="M 0 450.72 
L 921.6 450.72 
L 921.6 0 
L 0 0 
z
" style="fill:#ffffff;"/>
  </g>
  <g id="axes_1">
   <g id="patch_2">
    <path d="M 115.2 401.1408 
L 829.44 401.1408 
L 829.44 54.0864 
L 115.2 54.0864 
z
" style="fill:#ffffff;"/>
   </g>
   <g id="matplotlib.axis_1">
    <g id="xtick_1">
     <g id="line2d_1">
      <defs>
       <path d="M 0 0 
L 0 3.5 
" id="m4a92f245cc" style="stroke:#000000;stroke-width:0.8;"/>
      </defs>
      <g>
       <use style="stroke:#000000;stroke-width:0.8;" x="147.665455" xlink:href="#m4a92f245cc" y="401.1408"/>
      </g>
     </g>
     <g id="text_1">
      <!-- −2.0 -->
      <g transform="translate(135.524048 415.739238)scale(0.1 -0.1)">
       <defs>
        <path d="M 10.59375 35.5 
L 73.1875 35.5 
L 73.1875 27.203125 
L 10.59375 27.203125 
z
" id="DejaVuSans-8722"/>
        <path d="M 19.1875 8.296875 
L 53.609375 8.296875 
L 53.609375 0 
L 7.328125 0 
L 7.328125 8.296875 
Q 12.9375 14.109375 22.625 23.890625 
Q 32.328125 33.6875 34.8125 36.53125 
Q 39.546875 41.84375 41.421875 45.53125 
Q 43.3125 49.21875 43.3125 52.78125 
Q 43.3125 58.59375 39.234375 62.25 
Q 35.15625 65.921875 28.609375 65.921875 
Q 23.96875 65.921875 18.8125 64.3125 
Q 13.671875 62.703125 7.8125 59.421875 
L 7.8125 69.390625 
Q 13.765625 71.78125 18.9375 73 
Q 24.125 74.21875 28.421875 74.21875 
Q 39.75 74.21875 46.484375 68.546875 
Q 53.21875 62.890625 53.21875 53.421875 
Q 53.21875 48.921875 51.53125 44.890625 
Q 49.859375 40.875 45.40625 35.40625 
Q 44.1875 33.984375 37.640625 27.21875 
Q 31.109375 20.453125 19.1875 8.296875 
z
" id="DejaVuSans-50"/>
        <path d="M 10.6875 12.40625 
L 21 12.40625 
L 21 0 
L 10.6875 0 
z
" id="DejaVuSans-46"/>
        <path d="M 31.78125 66.40625 
Q 24.171875 66.40625 20.328125 58.90625 
Q 16.5 51.421875 16.5 36.375 
Q 16.5 21.390625 20.328125 13.890625 
Q 24.171875 6.390625 31.78125 6.390625 
Q 39.453125 6.390625 43.28125 13.890625 
Q 47.125 21.390625 47.125 36.375 
Q 47.125 51.421875 43.28125 58.90625 
Q 39.453125 66.40625 31.78125 66.40625 
z
M 31.78125 74.21875 
Q 44.046875 74.21875 50.515625 64.515625 
Q 56.984375 54.828125 56.984375 36.375 
Q 56.984375 17.96875 50.515625 8.265625 
Q 44.046875 -1.421875 31.78125 -1.421875 
Q 19.53125 -1.421875 13.0625 8.265625 
Q 6.59375 17.96875 6.59375 36.375 
Q 6.59375 54.828125 13.0625 64.515625 
Q 19.53125 74.21875 31.78125 74.21875 
z
" id="DejaVuSans-48"/>
       </defs>
       <use xlink:href="#DejaVuSans-8722"/>
       <use x="83.789062" xlink:href="#DejaVuSans-50"/>
       <use x="147.412109" xlink:href="#DejaVuSans-46"/>
       <use x="179.199219" xlink:href="#DejaVuSans-48"/>
      </g>
     </g>
    </g>
    <g id="xtick_2">
     <g id="line2d_2">
      <g>
       <use style="stroke:#000000;stroke-width:0.8;" x="228.829091" xlink:href="#m4a92f245cc" y="401.1408"/>
      </g>
     </g>
     <g id="text_2">
      <!-- −1.5 -->
      <g transform="translate(216.687685 415.739238)scale(0.1 -0.1)">
       <defs>
        <path d="M 12.40625 8.296875 
L 28.515625 8.296875 
L 28.515625 63.921875 
L 10.984375 60.40625 
L 10.984375 69.390625 
L 28.421875 72.90625 
L 38.28125 72.90625 
L 38.28125 8.296875 
L 54.390625 8.296875 
L 54.390625 0 
L 12.40625 0 
z
" id="DejaVuSans-49"/>
        <path d="M 10.796875 72.90625 
L 49.515625 72.90625 
L 49.515625 64.59375 
L 19.828125 64.59375 
L 19.828125 46.734375 
Q 21.96875 47.46875 24.109375 47.828125 
Q 26.265625 48.1875 28.421875 48.1875 
Q 40.625 48.1875 47.75 41.5 
Q 54.890625 34.8125 54.890625 23.390625 
Q 54.890625 11.625 47.5625 5.09375 
Q 40.234375 -1.421875 26.90625 -1.421875 
Q 22.3125 -1.421875 17.546875 -0.640625 
Q 12.796875 0.140625 7.71875 1.703125 
L 7.71875 11.625 
Q 12.109375 9.234375 16.796875 8.0625 
Q 21.484375 6.890625 26.703125 6.890625 
Q 35.15625 6.890625 40.078125 11.328125 
Q 45.015625 15.765625 45.015625 23.390625 
Q 45.015625 31 40.078125 35.4375 
Q 35.15625 39.890625 26.703125 39.890625 
Q 22.75 39.890625 18.8125 39.015625 
Q 14.890625 38.140625 10.796875 36.28125 
z
" id="DejaVuSans-53"/>
       </defs>
       <use xlink:href="#DejaVuSans-8722"/>
       <use x="83.789062" xlink:href="#DejaVuSans-49"/>
       <use x="147.412109" xlink:href="#DejaVuSans-46"/>
       <use x="179.199219" xlink:href="#DejaVuSans-53"/>
      </g>
     </g>
    </g>
    <g id="xtick_3">
     <g id="line2d_3">
      <g>
       <use style="stroke:#000000;stroke-width:0.8;" x="309.992727" xlink:href="#m4a92f245cc" y="401.1408"/>
      </g>
     </g>
     <g id="text_3">
      <!-- −1.0 -->
      <g transform="translate(297.851321 415.739238)scale(0.1 -0.1)">
       <use xlink:href="#DejaVuSans-8722"/>
       <use x="83.789062" xlink:href="#DejaVuSans-49"/>
       <use x="147.412109" xlink:href="#DejaVuSans-46"/>
       <use x="179.199219" xlink:href="#DejaVuSans-48"/>
      </g>
     </g>
    </g>
    <g id="xtick_4">
     <g id="line2d_4">
      <g>
       <use style="stroke:#000000;stroke-width:0.8;" x="391.156364" xlink:href="#m4a92f245cc" y="401.1408"/>
      </g>
     </g>
     <g id="text_4">
      <!-- −0.5 -->
      <g transform="translate(379.014957 415.739238)scale(0.1 -0.1)">
       <use xlink:href="#DejaVuSans-8722"/>
       <use x="83.789062" xlink:href="#DejaVuSans-48"/>
       <use x="147.412109" xlink:href="#DejaVuSans-46"/>
       <use x="179.199219" xlink:href="#DejaVuSans-53"/>
      </g>
     </g>
    </g>
    <g id="xtick_5">
     <g id="line2d_5">
      <g>
       <use style="stroke:#000000;stroke-width:0.8;" x="472.32" xlink:href="#m4a92f245cc" y="401.1408"/>
      </g>
     </g>
     <g id="text_5">
      <!-- 0.0 -->
      <g transform="translate(464.368437 415.739238)scale(0.1 -0.1)">
       <use xlink:href="#DejaVuSans-48"/>
       <use x="63.623047" xlink:href="#DejaVuSans-46"/>
       <use x="95.410156" xlink:href="#DejaVuSans-48"/>
      </g>
     </g>
    </g>
    <g id="xtick_6">
     <g id="line2d_6">
      <g>
       <use style="stroke:#000000;stroke-width:0.8;" x="553.483636" xlink:href="#m4a92f245cc" y="401.1408"/>
      </g>
     </g>
     <g id="text_6">
      <!-- 0.5 -->
      <g transform="translate(545.532074 415.739238)scale(0.1 -0.1)">
       <use xlink:href="#DejaVuSans-48"/>
       <use x="63.623047" xlink:href="#DejaVuSans-46"/>
       <use x="95.410156" xlink:href="#DejaVuSans-53"/>
      </g>
     </g>
    </g>
    <g id="xtick_7">
     <g id="line2d_7">
      <g>
       <use style="stroke:#000000;stroke-width:0.8;" x="634.647273" xlink:href="#m4a92f245cc" y="401.1408"/>
      </g>
     </g>
     <g id="text_7">
      <!-- 1.0 -->
      <g transform="translate(626.69571 415.739238)scale(0.1 -0.1)">
       <use xlink:href="#DejaVuSans-49"/>
       <use x="63.623047" xlink:href="#DejaVuSans-46"/>
       <use x="95.410156" xlink:href="#DejaVuSans-48"/>
      </g>
     </g>
    </g>
    <g id="xtick_8">
     <g id="line2d_8">
      <g>
       <use style="stroke:#000000;stroke-width:0.8;" x="715.810909" xlink:href="#m4a92f245cc" y="401.1408"/>
      </g>
     </g>
     <g id="text_8">
      <!-- 1.5 -->
      <g transform="translate(707.859347 415.739238)scale(0.1 -0.1)">
       <use xlink:href="#DejaVuSans-49"/>
       <use x="63.623047" xlink:href="#DejaVuSans-46"/>
       <use x="95.410156" xlink:href="#DejaVuSans-53"/>
      </g>
     </g>
    </g>
    <g id="xtick_9">
     <g id="line2d_9">
      <g>
       <use style="stroke:#000000;stroke-width:0.8;" x="796.974545" xlink:href="#m4a92f245cc" y="401.1408"/>
      </g>
     </g>
     <g id="text_9">
      <!-- 2.0 -->
      <g transform="translate(789.022983 415.739238)scale(0.1 -0.1)">
       <use xlink:href="#DejaVuSans-50"/>
       <use x="63.623047" xlink:href="#DejaVuSans-46"/>
       <use x="95.410156" xlink:href="#DejaVuSans-48"/>
      </g>
     </g>
    </g>
   </g>
   <g id="matplotlib.axis_2">
    <g id="ytick_1">
     <g id="line2d_10">
      <defs>
       <path d="M 0 0 
L -3.5 0 
" id="m1e4165879e" style="stroke:#000000;stroke-width:0.8;"/>
      </defs>
      <g>
       <use style="stroke:#000000;stroke-width:0.8;" x="115.2" xlink:href="#m1e4165879e" y="400.420793"/>
      </g>
     </g>
     <g id="text_10">
      <!-- −2.0 -->
      <g transform="translate(83.917187 404.220012)scale(0.1 -0.1)">
       <use xlink:href="#DejaVuSans-8722"/>
       <use x="83.789062" xlink:href="#DejaVuSans-50"/>
       <use x="147.412109" xlink:href="#DejaVuSans-46"/>
       <use x="179.199219" xlink:href="#DejaVuSans-48"/>
      </g>
     </g>
    </g>
    <g id="ytick_2">
     <g id="line2d_11">
      <g>
       <use style="stroke:#000000;stroke-width:0.8;" x="115.2" xlink:href="#m1e4165879e" y="359.100889"/>
      </g>
     </g>
     <g id="text_11">
      <!-- −1.5 -->
      <g transform="translate(83.917187 362.900107)scale(0.1 -0.1)">
       <use xlink:href="#DejaVuSans-8722"/>
       <use x="83.789062" xlink:href="#DejaVuSans-49"/>
       <use x="147.412109" xlink:href="#DejaVuSans-46"/>
       <use x="179.199219" xlink:href="#DejaVuSans-53"/>
      </g>
     </g>
    </g>
    <g id="ytick_3">
     <g id="line2d_12">
      <g>
       <use style="stroke:#000000;stroke-width:0.8;" x="115.2" xlink:href="#m1e4165879e" y="317.780984"/>
      </g>
     </g>
     <g id="text_12">
      <!-- −1.0 -->
      <g transform="translate(83.917187 321.580203)scale(0.1 -0.1)">
       <use xlink:href="#DejaVuSans-8722"/>
       <use x="83.789062" xlink:href="#DejaVuSans-49"/>
       <use x="147.412109" xlink:href="#DejaVuSans-46"/>
       <use x="179.199219" xlink:href="#DejaVuSans-48"/>
      </g>
     </g>
    </g>
    <g id="ytick_4">
     <g id="line2d_13">
      <g>
       <use style="stroke:#000000;stroke-width:0.8;" x="115.2" xlink:href="#m1e4165879e" y="276.46108"/>
      </g>
     </g>
     <g id="text_13">
      <!-- −0.5 -->
      <g transform="translate(83.917187 280.260298)scale(0.1 -0.1)">
       <use xlink:href="#DejaVuSans-8722"/>
       <use x="83.789062" xlink:href="#DejaVuSans-48"/>
       <use x="147.412109" xlink:href="#DejaVuSans-46"/>
       <use x="179.199219" xlink:href="#DejaVuSans-53"/>
      </g>
     </g>
    </g>
    <g id="ytick_5">
     <g id="line2d_14">
      <g>
       <use style="stroke:#000000;stroke-width:0.8;" x="115.2" xlink:href="#m1e4165879e" y="235.141175"/>
      </g>
     </g>
     <g id="text_14">
      <!-- 0.0 -->
      <g transform="translate(92.296875 238.940394)scale(0.1 -0.1)">
       <use xlink:href="#DejaVuSans-48"/>
       <use x="63.623047" xlink:href="#DejaVuSans-46"/>
       <use x="95.410156" xlink:href="#DejaVuSans-48"/>
      </g>
     </g>
    </g>
    <g id="ytick_6">
     <g id="line2d_15">
      <g>
       <use style="stroke:#000000;stroke-width:0.8;" x="115.2" xlink:href="#m1e4165879e" y="193.82127"/>
      </g>
     </g>
     <g id="text_15">
      <!-- 0.5 -->
      <g transform="translate(92.296875 197.620489)scale(0.1 -0.1)">
       <use xlink:href="#DejaVuSans-48"/>
       <use x="63.623047" xlink:href="#DejaVuSans-46"/>
       <use x="95.410156" xlink:href="#DejaVuSans-53"/>
      </g>
     </g>
    </g>
    <g id="ytick_7">
     <g id="line2d_16">
      <g>
       <use style="stroke:#000000;stroke-width:0.8;" x="115.2" xlink:href="#m1e4165879e" y="152.501366"/>
      </g>
     </g>
     <g id="text_16">
      <!-- 1.0 -->
      <g transform="translate(92.296875 156.300585)scale(0.1 -0.1)">
       <use xlink:href="#DejaVuSans-49"/>
       <use x="63.623047" xlink:href="#DejaVuSans-46"/>
       <use x="95.410156" xlink:href="#DejaVuSans-48"/>
      </g>
     </g>
    </g>
    <g id="ytick_8">
     <g id="line2d_17">
      <g>
       <use style="stroke:#000000;stroke-width:0.8;" x="115.2" xlink:href="#m1e4165879e" y="111.181461"/>
      </g>
     </g>
     <g id="text_17">
      <!-- 1.5 -->
      <g transform="translate(92.296875 114.98068)scale(0.1 -0.1)">
       <use xlink:href="#DejaVuSans-49"/>
       <use x="63.623047" xlink:href="#DejaVuSans-46"/>
       <use x="95.410156" xlink:href="#DejaVuSans-53"/>
      </g>
     </g>
    </g>
    <g id="ytick_9">
     <g id="line2d_18">
      <g>
       <use style="stroke:#000000;stroke-width:0.8;" x="115.2" xlink:href="#m1e4165879e" y="69.861557"/>
      </g>
     </g>
     <g id="text_18">
      <!-- 2.0 -->
      <g transform="translate(92.296875 73.660775)scale(0.1 -0.1)">
       <use xlink:href="#DejaVuSans-50"/>
       <use x="63.623047" xlink:href="#DejaVuSans-46"/>
       <use x="95.410156" xlink:href="#DejaVuSans-48"/>
      </g>
     </g>
    </g>
   </g>
   <g id="line2d_19">
    <path clip-path="url(#p6b4ca6cfa5)" d="M 147.665455 69.8616 
L 148.965373 113.605555 
L 149.615332 98.443101 
L 150.265291 87.5237 
L 151.565209 139.482499 
L 152.215168 124.747097 
L 152.865127 115.583091 
L 153.515086 141.006256 
L 154.165045 157.297201 
L 155.464963 122.802632 
L 156.114922 140.449991 
L 156.764881 150.718462 
L 157.41484 126.906938 
L 158.064799 110.389265 
L 159.364717 136.946456 
L 160.014676 118.058928 
L 160.664636 104.976608 
L 161.314595 128.385404 
L 161.964554 147.610428 
L 162.614513 137.258871 
L 163.264472 130.383484 
L 164.56439 183.616098 
L 165.214349 171.322735 
L 165.864308 165.182173 
L 166.514267 190.904582 
L 167.164226 208.63292 
L 167.814185 189.640669 
L 168.464144 174.913802 
L 169.114103 196.424568 
L 169.764062 205.003549 
L 170.414021 178.992288 
L 171.06398 164.237307 
L 171.713939 182.176006 
L 172.363898 191.466383 
L 173.013857 167.960507 
L 173.663817 160.468414 
L 174.313776 185.313626 
L 174.963735 197.594937 
L 175.613694 184.572013 
L 176.263653 182.95646 
L 176.913612 211.092874 
L 177.563571 226.575182 
L 178.21353 214.164756 
L 178.863489 213.06074 
L 179.513448 233.197441 
L 180.163407 243.42695 
L 180.813366 225.40064 
L 181.463325 213.914259 
L 182.113284 227.688836 
L 182.763243 229.545984 
L 183.413202 206.686268 
L 184.063161 190.006659 
L 184.71312 201.107534 
L 185.363079 206.960351 
L 186.013038 184.430564 
L 186.662998 173.864276 
L 187.312957 191.742893 
L 187.962916 203.355265 
L 188.612875 188.788455 
L 189.262834 183.143355 
L 189.912793 208.833511 
L 190.562752 221.490774 
L 191.212711 206.54138 
L 191.86267 202.270688 
L 192.512629 221.658998 
L 193.162588 229.018998 
L 193.812547 206.621612 
L 194.462506 196.36711 
L 195.112465 208.318899 
L 195.762424 205.257294 
L 196.412383 181.018904 
L 197.062342 166.496741 
L 197.712301 176.245307 
L 198.36226 175.726731 
L 199.012219 155.110882 
L 199.662179 147.580775 
L 200.312138 160.451485 
L 200.962097 169.608598 
L 201.612056 158.777663 
L 202.262015 155.333673 
L 202.911974 175.240367 
L 203.561933 187.329905 
L 204.211892 178.949741 
L 204.861851 172.925807 
L 205.51181 189.071445 
L 206.161769 199.812791 
L 206.811728 181.9003 
L 207.461687 169.489804 
L 208.111646 179.507126 
L 208.761605 183.54411 
L 209.411564 161.558172 
L 210.061523 144.680775 
L 210.711482 157.808243 
L 211.361441 162.393735 
L 212.0114 143.125673 
L 212.66136 134.888723 
L 213.311319 153.769338 
L 213.961278 167.780171 
L 214.611237 155.864175 
L 215.261196 156.161207 
L 215.911155 181.176112 
L 216.561114 195.717375 
L 217.211073 188.655747 
L 217.861032 187.232161 
L 218.510991 208.59321 
L 219.16095 219.070692 
L 219.810909 204.753581 
L 220.460868 197.618259 
L 221.110827 209.038478 
L 221.760786 215.631834 
L 222.410745 197.786975 
L 223.060704 184.716142 
L 223.710663 197.635777 
L 224.360622 205.444063 
L 225.010581 192.233933 
L 225.660541 183.430582 
L 226.960459 222.859222 
L 227.610418 213.477197 
L 228.260377 212.139574 
L 228.910336 238.824032 
L 229.560295 260.613814 
L 230.210254 252.338738 
L 230.860213 248.05336 
L 231.510172 274.775467 
L 232.160131 288.60964 
L 232.81009 271.124704 
L 233.460049 262.147903 
L 234.110008 280.271327 
L 234.759967 288.017117 
L 235.409926 263.34267 
L 236.059885 252.220793 
L 236.709844 269.827833 
L 237.359803 275.230749 
L 238.009762 256.935397 
L 238.659722 250.356631 
L 239.309681 273.992601 
L 239.95964 286.657931 
L 240.609599 274.173176 
L 241.259558 275.622689 
L 241.909517 301.071956 
L 242.559476 317.992 
L 243.209435 306.619519 
L 243.859394 303.391774 
L 244.509353 326.516409 
L 245.159312 335.774796 
L 245.809271 317.420028 
L 246.45923 305.216606 
L 247.109189 320.669151 
L 247.759148 325.377546 
L 248.409107 297.01211 
L 249.059066 282.328093 
L 249.709025 297.716291 
L 250.358984 302.455364 
L 251.008943 277.510927 
L 251.658903 266.755961 
L 252.308862 291.924849 
L 252.958821 300.778288 
L 253.60878 281.238741 
L 254.258739 280.453909 
L 254.908698 308.951024 
L 255.558657 320.344119 
L 256.208616 299.56675 
L 256.858575 298.98888 
L 257.508534 323.809104 
L 258.158493 325.25855 
L 258.808452 300.684614 
L 259.458411 292.206794 
L 260.10837 308.606143 
L 260.758329 302.836389 
L 261.408288 272.36189 
L 262.058247 263.244863 
L 262.708206 275.771731 
L 263.358165 273.072353 
L 264.008124 247.668221 
L 264.658084 241.954056 
L 265.308043 262.958539 
L 265.958002 266.50899 
L 266.607961 250.418289 
L 267.25792 251.076309 
L 267.907879 276.910113 
L 268.557838 285.862564 
L 269.207797 267.347252 
L 269.857756 268.724174 
L 270.507715 292.005859 
L 271.157674 294.546153 
L 271.807633 270.130617 
L 272.457592 263.32802 
L 273.107551 282.535095 
L 273.75751 276.161237 
L 274.407469 246.566411 
L 275.057428 241.059676 
L 275.707387 258.034846 
L 276.357346 253.813813 
L 277.007305 227.697224 
L 277.657265 230.591241 
L 278.307224 254.894403 
L 278.957183 255.27794 
L 279.607142 241.522803 
L 280.257101 251.092066 
L 280.90706 279.267648 
L 281.557019 282.829151 
L 282.206978 270.665527 
L 282.856937 281.730511 
L 283.506896 302.876774 
L 284.156855 302.793623 
L 284.806814 285.589257 
L 285.456773 286.938486 
L 286.106732 302.281891 
L 286.756691 295.305017 
L 287.40665 275.688566 
L 288.056609 273.100062 
L 288.706568 286.961479 
L 289.356527 284.656914 
L 290.006486 266.445349 
L 290.656446 271.3757 
L 291.306405 292.723604 
L 291.956364 297.603405 
L 292.606323 287.934074 
L 293.256282 297.739975 
L 293.906241 326.544604 
L 294.5562 332.112232 
L 295.206159 322.959983 
L 295.856118 334.133023 
L 296.506077 356.407292 
L 297.156036 356.383235 
L 297.805995 339.086529 
L 298.455954 344.121448 
L 299.105913 358.554885 
L 299.755872 348.936158 
L 300.405831 330.414453 
L 301.05579 330.456641 
L 301.705749 342.081116 
L 302.355708 334.374704 
L 303.005667 319.985829 
L 303.655627 327.036859 
L 304.305586 341.124913 
L 304.955545 342.61266 
L 305.605504 336.462737 
L 306.255463 346.356139 
L 306.905422 366.119067 
L 307.555381 369.661755 
L 308.20534 365.389286 
L 308.855299 370.752855 
L 309.505258 385.037617 
L 310.155217 385.3656 
L 310.805176 370.311175 
L 311.455135 368.495944 
L 312.105094 375.361863 
L 312.755053 368.501023 
L 313.405012 348.079409 
L 314.054971 340.221995 
L 314.70493 348.904226 
L 315.354889 341.720409 
L 316.004848 324.239591 
L 316.654808 323.851996 
L 317.304767 336.637268 
L 317.954726 337.27194 
L 318.604685 325.491413 
L 319.254644 332.690489 
L 319.904603 350.12588 
L 320.554562 350.441012 
L 321.204521 342.083763 
L 321.85448 345.178082 
L 322.504439 357.438002 
L 323.154398 352.544259 
L 323.804357 336.817363 
L 324.454316 333.46093 
L 325.104275 334.707979 
L 325.754234 325.607435 
L 326.404193 305.508617 
L 327.054152 296.09821 
L 327.704111 298.863705 
L 328.35407 291.524599 
L 329.004029 276.724914 
L 329.653989 270.813015 
L 330.303948 280.533669 
L 330.953907 284.311865 
L 331.603866 273.727078 
L 332.253825 275.848083 
L 332.903784 291.658466 
L 333.553743 298.074476 
L 334.203702 287.89127 
L 334.853661 286.651324 
L 335.50362 302.845736 
L 336.153579 301.988139 
L 336.803538 283.909227 
L 337.453497 277.862947 
L 338.103456 285.559745 
L 338.753415 279.548809 
L 339.403374 255.533005 
L 340.053333 249.175987 
L 340.703292 257.438646 
L 341.353251 250.754107 
L 342.00321 234.315848 
L 342.65317 232.985635 
L 343.303129 248.655093 
L 343.953088 250.664011 
L 344.603047 241.969467 
L 345.253006 249.517428 
L 345.902965 267.309029 
L 346.552924 274.505932 
L 347.202883 267.337315 
L 347.852842 271.43582 
L 348.502801 288.15666 
L 349.15276 289.081166 
L 349.802719 276.081437 
L 350.452678 271.200574 
L 351.102637 281.395418 
L 351.752596 279.403708 
L 352.402555 258.476296 
L 353.052514 252.852396 
L 353.702473 263.603882 
L 354.352432 262.923039 
L 355.002391 246.24645 
L 355.652351 245.696412 
L 356.30231 267.608324 
L 356.952269 271.973098 
L 357.602228 261.677594 
L 358.252187 270.550628 
L 358.902146 295.569007 
L 359.552105 302.862624 
L 360.202064 291.579826 
L 360.852023 301.103192 
L 361.501982 321.963419 
L 362.151941 319.357953 
L 362.8019 303.902102 
L 363.451859 304.801635 
L 364.101818 317.780981 
L 364.751777 308.53857 
L 365.401736 287.915873 
L 366.051695 287.622483 
L 366.701654 295.936422 
L 367.351613 290.028387 
L 368.001572 274.361194 
L 368.651532 277.813819 
L 369.301491 294.27143 
L 369.95145 293.866654 
L 370.601409 286.448757 
L 371.251368 294.38664 
L 371.901327 315.012592 
L 372.551286 319.277101 
L 373.201245 308.458638 
L 373.851204 315.593556 
L 374.501163 331.430376 
L 375.151122 328.137852 
L 375.801081 310.000766 
L 376.45104 307.960909 
L 377.100999 319.051494 
L 377.750958 305.837516 
L 378.400917 281.73169 
L 379.050876 279.083526 
L 379.700835 286.883385 
L 380.350794 275.59221 
L 381.000753 254.470134 
L 381.650713 259.594886 
L 382.300672 272.932367 
L 382.950631 265.001539 
L 383.60059 254.821145 
L 384.250549 265.118825 
L 384.900508 281.854639 
L 385.550467 276.013327 
L 386.200426 266.104168 
L 387.500344 283.747611 
L 388.150303 274.071547 
L 388.800262 258.424115 
L 389.450221 257.914213 
L 390.10018 259.395358 
L 391.400098 223.919366 
L 392.050057 218.863365 
L 392.700016 219.621337 
L 393.349975 207.679367 
L 393.999934 190.957082 
L 394.649894 193.184282 
L 395.299853 200.704305 
L 395.949812 196.378037 
L 396.599771 188.269542 
L 397.24973 195.711005 
L 397.899689 210.975609 
L 398.549648 206.921687 
L 399.199607 199.152634 
L 400.499525 216.553161 
L 401.149484 208.217765 
L 401.799443 192.954541 
L 402.449402 195.385536 
L 403.099361 196.851305 
L 404.399279 165.250877 
L 405.049238 164.090815 
L 405.699197 164.842149 
L 406.349156 151.411935 
L 406.999115 141.848954 
L 407.649075 148.441115 
L 408.299034 153.02697 
L 408.948993 151.074031 
L 409.598952 150.913107 
L 410.89887 172.419161 
L 411.548829 173.252608 
L 412.198788 175.926617 
L 413.498706 190.022557 
L 414.148665 188.956232 
L 414.798624 181.61741 
L 415.448583 181.811601 
L 416.098542 182.480912 
L 416.748501 176.476066 
L 417.39846 165.503729 
L 418.048419 161.28025 
L 418.698378 165.052215 
L 419.348337 159.430309 
L 419.998296 152.704308 
L 420.648256 156.812052 
L 421.298215 166.378646 
L 421.948174 169.995915 
L 422.598133 169.148045 
L 423.248092 180.910564 
L 423.898051 194.808775 
L 424.54801 198.879517 
L 425.197969 201.893549 
L 425.847928 209.490667 
L 426.497887 218.66162 
L 427.147846 217.158637 
L 427.797805 212.615328 
L 428.447764 213.361677 
L 429.097723 211.979934 
L 429.747682 207.532709 
L 430.397641 198.556802 
L 431.0476 193.176104 
L 431.697559 192.854992 
L 432.347518 190.11437 
L 432.997477 186.746166 
L 433.647437 184.655533 
L 434.947355 199.090328 
L 435.597314 198.418742 
L 436.247273 203.066535 
L 436.897232 215.081647 
L 437.547191 225.009355 
L 438.19715 223.346351 
L 438.847109 222.979626 
L 439.497068 233.745896 
L 440.147027 234.687674 
L 440.796986 224.290885 
L 441.446945 217.884543 
L 442.096904 219.71108 
L 442.746863 214.831156 
L 443.396822 196.975049 
L 444.046781 189.152704 
L 444.69674 190.407133 
L 445.346699 184.869006 
L 445.996658 174.144167 
L 446.646618 170.255623 
L 447.296577 178.102514 
L 447.946536 179.555957 
L 448.596495 175.291101 
L 449.246454 179.020896 
L 449.896413 188.381221 
L 450.546372 194.56099 
L 451.196331 189.709127 
L 451.84629 188.267063 
L 452.496249 195.167877 
L 453.146208 194.535975 
L 454.446126 172.32684 
L 455.096085 172.531866 
L 455.746044 168.102943 
L 456.396003 148.634951 
L 457.045962 136.704239 
L 457.695921 137.794948 
L 458.34588 135.627389 
L 458.995839 120.084291 
L 459.645799 112.941452 
L 460.295758 125.121673 
L 460.945717 127.83079 
L 461.595676 119.230476 
L 462.245635 121.494509 
L 462.895594 137.248383 
L 463.545553 142.800315 
L 464.195512 132.377736 
L 464.845471 135.339084 
L 465.49543 147.323706 
L 466.145389 144.462417 
L 466.795348 130.606268 
L 467.445307 125.076243 
L 468.095266 130.061446 
L 468.745225 121.291901 
L 469.395184 103.960626 
L 470.045143 98.926266 
L 470.695102 101.160506 
L 471.345061 97.483642 
L 471.99502 85.512679 
L 472.64498 85.512685 
L 473.294939 97.483642 
L 473.944898 101.160506 
L 474.594857 98.926266 
L 475.244816 103.960613 
L 475.894775 121.291898 
L 476.544734 130.061446 
L 477.194693 125.076243 
L 477.844652 130.606288 
L 478.494611 144.462388 
L 479.14457 147.323737 
L 479.794529 135.339084 
L 480.444488 132.377736 
L 481.094447 142.800309 
L 481.744406 137.248367 
L 482.394365 121.494547 
L 483.044324 119.230476 
L 483.694283 127.83079 
L 484.344242 125.121641 
L 484.994201 112.941447 
L 485.644161 120.084303 
L 486.29412 135.627389 
L 486.944079 137.794948 
L 487.594038 136.704204 
L 488.243997 148.634942 
L 488.893956 168.102952 
L 489.543915 172.531866 
L 490.193874 172.32684 
L 491.493792 194.535955 
L 492.143751 195.167873 
L 492.79371 188.267063 
L 493.443669 189.709127 
L 494.093628 194.560974 
L 494.743587 188.38118 
L 495.393546 179.020896 
L 496.043505 175.291101 
L 496.693464 179.555957 
L 497.343423 178.102507 
L 497.993382 170.255588 
L 498.643342 174.144167 
L 499.293301 184.869006 
L 499.94326 190.407133 
L 500.593219 189.152705 
L 501.243178 196.974984 
L 501.893137 214.831156 
L 502.543096 219.71108 
L 503.193055 217.884543 
L 503.843014 224.29088 
L 504.492973 234.68767 
L 505.142932 233.745896 
L 505.792891 222.979626 
L 506.44285 223.346351 
L 507.092809 225.009318 
L 507.742768 215.081653 
L 508.392727 203.066535 
L 509.042686 198.418742 
L 509.692645 199.090328 
L 510.992563 184.655533 
L 511.642523 186.746166 
L 512.292482 190.11437 
L 512.942441 192.854992 
L 513.5924 193.176076 
L 514.242359 198.55681 
L 514.892318 207.532709 
L 515.542277 211.979934 
L 516.192236 213.361677 
L 516.842195 212.615325 
L 517.492154 217.158655 
L 518.142113 218.66162 
L 518.792072 209.490667 
L 519.442031 201.893551 
L 520.09199 198.879543 
L 520.741949 194.808771 
L 522.041867 169.148045 
L 522.691826 169.995912 
L 523.341785 166.378655 
L 523.991744 156.812037 
L 524.641704 152.704308 
L 525.941622 165.052208 
L 526.591581 161.280284 
L 527.24154 165.503705 
L 527.891499 176.476066 
L 528.541458 182.480912 
L 529.191417 181.811623 
L 529.841376 181.617431 
L 530.491335 188.956188 
L 531.141294 190.022557 
L 532.441212 175.926642 
L 533.091171 173.252628 
L 533.74113 172.419137 
L 535.041048 150.913107 
L 535.691007 151.074058 
L 536.340966 153.026994 
L 536.990925 148.441115 
L 537.640885 141.848954 
L 538.290844 151.411935 
L 538.940803 164.842174 
L 539.590762 164.090829 
L 540.240721 165.250877 
L 541.540639 196.851305 
L 542.190598 195.385556 
L 542.840557 192.954521 
L 543.490516 208.217765 
L 544.140475 216.553161 
L 545.440393 199.152631 
L 546.090352 206.921662 
L 546.740311 210.975609 
L 547.39027 195.711005 
L 548.040229 188.269542 
L 548.690188 196.378036 
L 549.340147 200.704294 
L 549.990106 193.184282 
L 550.640066 190.957082 
L 551.290025 207.679367 
L 551.939984 219.621348 
L 552.589943 218.86336 
L 553.239902 223.919366 
L 554.53982 259.395358 
L 555.189779 257.914241 
L 555.839738 258.42414 
L 556.489697 274.071547 
L 557.139656 283.747611 
L 557.789615 275.677131 
L 558.439574 266.10416 
L 559.089533 276.013335 
L 559.739492 281.854639 
L 560.389451 265.118825 
L 561.03941 254.821146 
L 561.689369 265.001543 
L 562.339328 272.932363 
L 562.989287 259.594886 
L 563.639247 254.470134 
L 564.289206 275.592197 
L 564.939165 286.883378 
L 565.589124 279.083536 
L 566.239083 281.73169 
L 566.889042 305.837516 
L 567.539001 319.051487 
L 568.18896 307.960895 
L 568.838919 310.00077 
L 569.488878 328.137852 
L 570.138837 331.430376 
L 570.788796 315.593553 
L 571.438755 308.458619 
L 572.088714 319.277133 
L 572.738673 315.012592 
L 573.388632 294.38664 
L 574.038591 286.44872 
L 574.68855 293.866612 
L 575.338509 294.271443 
L 575.988468 277.813819 
L 576.638428 274.361194 
L 577.288387 290.028384 
L 577.938346 295.936385 
L 578.588305 287.622483 
L 579.238264 287.915873 
L 579.888223 308.53857 
L 580.538182 317.78095 
L 581.188141 304.801608 
L 581.8381 303.902102 
L 582.488059 319.357953 
L 583.138018 321.963419 
L 583.787977 301.103175 
L 584.437936 291.579786 
L 585.087895 302.862624 
L 585.737854 295.569007 
L 586.387813 270.550628 
L 587.037772 261.677564 
L 587.687731 271.973121 
L 588.33769 267.608324 
L 588.987649 245.696412 
L 589.637609 246.24645 
L 590.287568 262.92304 
L 590.937527 263.603896 
L 591.587486 252.852396 
L 592.237445 258.476296 
L 592.887404 279.403708 
L 593.537363 281.395427 
L 594.187322 271.200607 
L 594.837281 276.081437 
L 595.48724 289.081166 
L 596.137199 288.15666 
L 596.787158 271.435818 
L 597.437117 267.337314 
L 598.087076 274.505932 
L 598.737035 267.309029 
L 599.386994 249.517428 
L 600.036953 241.96947 
L 600.686912 250.664029 
L 601.336871 248.655093 
L 601.98683 232.985635 
L 602.63679 234.315851 
L 603.286749 250.754122 
L 603.936708 257.438618 
L 604.586667 249.175987 
L 605.236626 255.533005 
L 605.886585 279.548812 
L 606.536544 285.559733 
L 607.186503 277.862945 
L 607.836462 283.909227 
L 608.486421 301.988139 
L 609.13638 302.845744 
L 609.786339 286.65134 
L 610.436298 287.891231 
L 611.086257 298.074476 
L 611.736216 291.658466 
L 612.386175 275.848069 
L 613.036134 273.727061 
L 613.686093 284.311861 
L 614.336052 280.533669 
L 614.986011 270.813015 
L 615.635971 276.724927 
L 616.28593 291.524627 
L 616.935889 298.863682 
L 617.585848 296.09821 
L 618.235807 305.508617 
L 618.885766 325.60742 
L 619.535725 334.707993 
L 620.185684 333.46093 
L 620.835643 336.817363 
L 621.485602 352.544259 
L 622.135561 357.43803 
L 622.78552 345.178137 
L 623.435479 342.083763 
L 624.085438 350.441012 
L 624.735397 350.12588 
L 625.385356 332.690504 
L 626.035315 325.491402 
L 626.685274 337.27194 
L 627.335233 336.637268 
L 627.985192 323.851996 
L 628.635152 324.239615 
L 629.285111 341.720399 
L 629.93507 348.904226 
L 630.585029 340.221995 
L 631.234988 348.079409 
L 631.884947 368.50104 
L 632.534906 375.361859 
L 633.184865 368.495944 
L 633.834824 370.311175 
L 634.484783 385.3656 
L 635.134742 385.037614 
L 635.784701 370.752833 
L 636.43466 365.389286 
L 637.084619 369.661755 
L 637.734578 366.119067 
L 638.384537 346.356159 
L 639.034496 336.462737 
L 639.684455 342.61266 
L 640.334414 341.124913 
L 640.984373 327.036859 
L 641.634333 319.985836 
L 642.284292 334.374704 
L 642.934251 342.081116 
L 643.58421 330.456641 
L 644.234169 330.414453 
L 644.884128 348.936148 
L 645.534087 358.554885 
L 646.184046 344.121448 
L 646.834005 339.086529 
L 647.483964 356.383235 
L 648.133923 356.4073 
L 648.783882 334.133023 
L 649.433841 322.959983 
L 650.0838 332.112232 
L 650.733759 326.544604 
L 651.383718 297.739953 
L 652.033677 287.934074 
L 652.683636 297.603405 
L 653.333595 292.723604 
L 653.983554 271.3757 
L 654.633514 266.445325 
L 655.283473 284.656914 
L 655.933432 286.961479 
L 656.583391 273.100062 
L 657.23335 275.688566 
L 657.883309 295.304997 
L 658.533268 302.281891 
L 659.183227 286.938486 
L 659.833186 285.589257 
L 660.483145 302.793623 
L 661.133104 302.876767 
L 661.783063 281.730511 
L 662.433022 270.665527 
L 663.082981 282.829151 
L 663.73294 279.267648 
L 664.382899 251.092033 
L 665.032858 241.522803 
L 665.682817 255.27794 
L 666.332776 254.894403 
L 666.982735 230.591221 
L 667.632695 227.69721 
L 668.282654 253.813813 
L 668.932613 258.034846 
L 669.582572 241.059676 
L 670.232531 246.566396 
L 670.88249 276.161291 
L 671.532449 282.535095 
L 672.182408 263.32802 
L 672.832367 270.130617 
L 673.482326 294.546128 
L 674.132285 292.005898 
L 674.782244 268.724174 
L 675.432203 267.347252 
L 676.082162 285.862564 
L 676.732121 276.910091 
L 677.38208 251.076332 
L 678.032039 250.418289 
L 678.681998 266.50899 
L 679.331957 262.958539 
L 679.981916 241.954049 
L 680.631876 247.668221 
L 681.281835 273.072353 
L 681.931794 275.771731 
L 682.581753 263.244863 
L 683.231712 272.361893 
L 683.881671 302.836389 
L 684.53163 308.606143 
L 685.181589 292.206794 
L 685.831548 300.684614 
L 686.481507 325.258515 
L 687.131466 323.809104 
L 687.781425 298.98888 
L 688.431384 299.56675 
L 689.081343 320.344119 
L 689.731302 308.951017 
L 690.381261 280.453909 
L 691.03122 281.238741 
L 691.681179 300.778288 
L 692.331138 291.924849 
L 692.981097 266.755953 
L 693.631057 277.510927 
L 694.281016 302.455364 
L 694.930975 297.716291 
L 695.580934 282.328093 
L 696.230893 297.012083 
L 696.880852 325.377546 
L 697.530811 320.669151 
L 698.18077 305.216606 
L 698.830729 317.420028 
L 699.480688 335.774786 
L 700.130647 326.516409 
L 700.780606 303.391774 
L 701.430565 306.619519 
L 702.080524 317.992 
L 702.730483 301.071983 
L 703.380442 275.622689 
L 704.030401 274.173176 
L 704.68036 286.657931 
L 705.330319 273.992601 
L 705.980278 250.356626 
L 706.630238 256.935397 
L 707.280197 275.230749 
L 707.930156 269.827833 
L 708.580115 252.220804 
L 709.230074 263.342611 
L 709.880033 288.017117 
L 710.529992 280.271327 
L 711.179951 262.147903 
L 711.82991 271.124739 
L 712.479869 288.609636 
L 713.129828 274.775467 
L 713.779787 248.05336 
L 714.429746 252.338738 
L 715.079705 260.613844 
L 715.729664 238.824016 
L 716.379623 212.139574 
L 717.029582 213.477197 
L 717.679541 222.859222 
L 718.979459 183.430573 
L 719.629419 192.233933 
L 720.279378 205.444063 
L 720.929337 197.635777 
L 721.579296 184.716171 
L 722.229255 197.786984 
L 722.879214 215.631834 
L 723.529173 209.038478 
L 724.179132 197.618259 
L 724.829091 204.753592 
L 725.47905 219.070725 
L 726.129009 208.59321 
L 726.778968 187.232161 
L 727.428927 188.655747 
L 728.078886 195.71736 
L 728.728845 181.176112 
L 729.378804 156.161207 
L 730.028763 155.864175 
L 730.678722 167.780171 
L 731.328681 153.769343 
L 731.97864 134.888723 
L 732.6286 143.125673 
L 733.278559 162.393735 
L 733.928518 157.808243 
L 734.578477 144.680753 
L 735.228436 161.558172 
L 735.878395 183.54411 
L 736.528354 179.507126 
L 737.178313 169.489804 
L 737.828272 181.900247 
L 738.478231 199.812791 
L 739.12819 189.071445 
L 739.778149 172.925807 
L 740.428108 178.949715 
L 741.078067 187.329899 
L 741.728026 175.240367 
L 742.377985 155.333673 
L 743.027944 158.777663 
L 743.677903 169.60862 
L 744.327862 160.451462 
L 744.977821 147.580775 
L 745.627781 155.110882 
L 746.27774 175.726731 
L 746.927699 176.245314 
L 747.577658 166.496696 
L 748.227617 181.018904 
L 748.877576 205.257294 
L 749.527535 208.318899 
L 750.177494 196.3671 
L 750.827453 206.621553 
L 751.477412 229.018998 
L 752.127371 221.658998 
L 752.77733 202.270688 
L 753.427289 206.541403 
L 754.077248 221.490804 
L 754.727207 208.833511 
L 755.377166 183.143355 
L 756.027125 188.788455 
L 756.677084 203.355288 
L 757.327043 191.742898 
L 757.977002 173.864276 
L 758.626962 184.430564 
L 759.276921 206.960351 
L 759.92688 201.107531 
L 760.576839 190.006655 
L 761.226798 206.686268 
L 761.876757 229.545984 
L 762.526716 227.688836 
L 763.176675 213.914253 
L 763.826634 225.400638 
L 764.476593 243.42695 
L 765.126552 233.197441 
L 765.776511 213.06074 
L 766.42647 214.164747 
L 767.076429 226.575221 
L 767.726388 211.092874 
L 768.376347 182.95646 
L 769.026306 184.572013 
L 769.676265 197.594938 
L 770.326224 185.313603 
L 770.976183 160.468414 
L 771.626143 167.960507 
L 772.276102 191.466383 
L 772.926061 182.176022 
L 773.57602 164.237297 
L 774.225979 178.992288 
L 774.875938 205.003549 
L 775.525897 196.424582 
L 776.175856 174.913825 
L 776.825815 189.640692 
L 777.475774 208.63292 
L 778.125733 190.904582 
L 778.775692 165.182143 
L 779.425651 171.322704 
L 780.07561 183.616075 
L 781.375528 130.383484 
L 782.025487 137.258861 
L 782.675446 147.610445 
L 783.325405 128.385404 
L 783.975364 104.976608 
L 784.625324 118.058928 
L 785.275283 136.946491 
L 786.575201 110.389265 
L 787.22516 126.906938 
L 787.875119 150.718462 
L 788.525078 140.450014 
L 789.175037 122.80262 
L 790.474955 157.297201 
L 791.124914 141.006256 
L 791.774873 115.583099 
L 792.424832 124.747066 
L 793.074791 139.482499 
L 794.374709 87.5237 
L 795.024668 98.443114 
L 795.674627 113.605548 
L 796.974545 69.8616 
L 796.974545 69.8616 
" style="fill:none;stroke:#1f77b4;stroke-linecap:square;stroke-width:1.5;"/>
   </g>
   <g id="patch_3">
    <path d="M 115.2 401.1408 
L 115.2 54.0864 
" style="fill:none;stroke:#000000;stroke-linecap:square;stroke-linejoin:miter;stroke-width:0.8;"/>
   </g>
   <g id="patch_4">
    <path d="M 829.44 401.1408 
L 829.44 54.0864 
" style="fill:none;stroke:#000000;stroke-linecap:square;stroke-linejoin:miter;stroke-width:0.8;"/>
   </g>
   <g id="patch_5">
    <path d="M 115.2 401.1408 
L 829.44 401.1408 
" style="fill:none;stroke:#000000;stroke-linecap:square;stroke-linejoin:miter;stroke-width:0.8;"/>
   </g>
   <g id="patch_6">
    <path d="M 115.2 54.0864 
L 829.44 54.0864 
" style="fill:none;stroke:#000000;stroke-linecap:square;stroke-linejoin:miter;stroke-width:0.8;"/>
   </g>
  </g>
 </g>
 <defs>
  <clipPath id="p6b4ca6cfa5">
   <rect height="347.0544" width="714.24" x="115.2" y="54.0864"/>
  </clipPath>
 </defs>
</svg>
